# xmcd
#
# Track frame offsets:
#	150
#	10401
#	21763
#	32774
#	44438
#	55349
#	68811
#	80247
#	91721
#	101958
#	113044
#	124069
#
# Disc length: 1796 seconds
#
# Revision: 0
# Processed by: cddbd v1.5.2PL0 Copyright (c) Steve Scherf et al.
# Submitted via: audiograbber 1.83.01
#
DISCID=9e07020c
DTITLE=George Jones - My Favorites Of Hank Williams
DYEAR=1962
DGENRE=Country
TTITLE0=You're Gonna Change (Or I'm Gonna Leave)
TTITLE1=You Win Again
TTITLE2=Mansion On The Hill
TTITLE3=I Just Don't Like This Kind Of Livin'
TTITLE4=Lonesome Whistle
TTITLE5=Wedding Bells
TTITLE6=Your Cheatin' Heart
TTITLE7=They'll Never Take Her Love Away From Me
TTITLE8=I Heard You Crying In Your Sleep
TTITLE9=A House Without Love
TTITLE10=I Could Never Be Ashamed Of You
TTITLE11=Take These Chains From My Heart
EXTD=
EXTT0=
EXTT1=
EXTT2=
EXTT3=
EXTT4=
EXTT5=
EXTT6=
EXTT7=
EXTT8=
EXTT9=
EXTT10=
EXTT11=
PLAYORDER=
